<svg width="42" height="42" viewBox="0 0 42 42" fill="none" xmlns="http://www.w3.org/2000/svg">
<path d="M33.25 19.25H12.495L18.8475 11.62C19.1445 11.2626 19.2875 10.8019 19.2448 10.3391C19.2021 9.87639 18.9774 9.44954 18.62 9.1525C18.2626 8.85546 17.8019 8.71255 17.3391 8.75521C16.8764 8.79788 16.4495 9.02262 16.1525 9.38L7.4025 19.88C7.34363 19.9635 7.29099 20.0513 7.245 20.1425C7.245 20.23 7.245 20.2825 7.1225 20.37C7.04318 20.5707 7.00165 20.7842 7 21C7.00165 21.2158 7.04318 21.4293 7.1225 21.63C7.1225 21.7175 7.1225 21.77 7.245 21.8575C7.29099 21.9487 7.34363 22.0365 7.4025 22.12L16.1525 32.62C16.317 32.8175 16.5231 32.9764 16.756 33.0853C16.9889 33.1942 17.2429 33.2504 17.5 33.25C17.9089 33.2508 18.3052 33.1084 18.62 32.8475C18.7972 32.7006 18.9437 32.5202 19.051 32.3166C19.1584 32.1129 19.2246 31.8902 19.2457 31.661C19.2668 31.4317 19.2425 31.2006 19.1742 30.9808C19.1059 30.761 18.9949 30.5568 18.8475 30.38L12.495 22.75H33.25C33.7141 22.75 34.1592 22.5656 34.4874 22.2374C34.8156 21.9092 35 21.4641 35 21C35 20.5359 34.8156 20.0908 34.4874 19.7626C34.1592 19.4344 33.7141 19.25 33.25 19.25Z" fill="black"/>
</svg>
