<svg width="25" height="25" viewBox="0 0 25 25" fill="none" xmlns="http://www.w3.org/2000/svg">
<g clip-path="url(#clip0_28_52)">
<path fill-rule="evenodd" clip-rule="evenodd" d="M3.90625 2.73438C3.90625 2.63077 3.94741 2.53142 4.02066 2.45816C4.09392 2.38491 4.19327 2.34375 4.29688 2.34375H17.5781C17.6817 2.34375 17.7811 2.38491 17.8543 2.45816C17.9276 2.53142 17.9688 2.63077 17.9688 2.73438V14.8219C17.9688 15.1327 18.0922 15.4307 18.312 15.6505C18.5318 15.8703 18.8298 15.9937 19.1406 15.9937C19.4514 15.9937 19.7495 15.8703 19.9693 15.6505C20.189 15.4307 20.3125 15.1327 20.3125 14.8219V2.73438C20.3125 2.00917 20.0244 1.31367 19.5116 0.80088C18.9988 0.288085 18.3033 0 17.5781 0H4.29688C3.57167 0 2.87617 0.288085 2.36338 0.80088C1.85059 1.31367 1.5625 2.00917 1.5625 2.73438V20.7031C1.5625 22.2125 2.7875 23.4375 4.29688 23.4375H9.25C9.5608 23.4375 9.85887 23.314 10.0786 23.0943C10.2984 22.8745 10.4219 22.5764 10.4219 22.2656C10.4219 21.9548 10.2984 21.6568 10.0786 21.437C9.85887 21.2172 9.5608 21.0938 9.25 21.0938H4.29688C4.19327 21.0938 4.09392 21.0526 4.02066 20.9793C3.94741 20.9061 3.90625 20.8067 3.90625 20.7031V2.73438ZM7.42188 6.25C7.11107 6.25 6.813 6.37347 6.59323 6.59323C6.37347 6.813 6.25 7.11107 6.25 7.42188C6.25 7.73268 6.37347 8.03075 6.59323 8.25052C6.813 8.47029 7.11107 8.59375 7.42188 8.59375H14.4531C14.7639 8.59375 15.062 8.47029 15.2818 8.25052C15.5015 8.03075 15.625 7.73268 15.625 7.42188C15.625 7.11107 15.5015 6.813 15.2818 6.59323C15.062 6.37347 14.7639 6.25 14.4531 6.25H7.42188ZM6.25 12.1094C6.25 11.7986 6.37347 11.5005 6.59323 11.2807C6.813 11.061 7.11107 10.9375 7.42188 10.9375H10.5469C10.8577 10.9375 11.1557 11.061 11.3755 11.2807C11.5953 11.5005 11.7188 11.7986 11.7188 12.1094C11.7188 12.4202 11.5953 12.7182 11.3755 12.938C11.1557 13.1578 10.8577 13.2812 10.5469 13.2812H7.42188C7.11107 13.2812 6.813 13.1578 6.59323 12.938C6.37347 12.7182 6.25 12.4202 6.25 12.1094ZM24.6469 17.6359C24.7571 17.5284 24.845 17.4002 24.9056 17.2587C24.9663 17.1172 24.9985 16.9652 25.0004 16.8112C25.0023 16.6573 24.9738 16.5045 24.9166 16.3615C24.8595 16.2186 24.7747 16.0883 24.6672 15.9781C24.5597 15.8679 24.4315 15.78 24.29 15.7194C24.1485 15.6587 23.9964 15.6265 23.8425 15.6246C23.6885 15.6227 23.5357 15.6512 23.3928 15.7084C23.2498 15.7655 23.1196 15.8503 23.0094 15.9578L16.7188 22.1016L14.5016 19.875C14.2798 19.6676 13.9862 19.5543 13.6826 19.5591C13.379 19.5639 13.0891 19.6863 12.8739 19.9006C12.6588 20.1149 12.5353 20.4044 12.5294 20.708C12.5234 21.0115 12.6356 21.3056 12.8422 21.5281L15.8781 24.575C16.0959 24.7937 16.3911 24.9178 16.6998 24.9201C17.0084 24.9224 17.3055 24.8029 17.5266 24.5875L24.6469 17.6344V17.6359Z" fill="black"/>
</g>
<defs>
<clipPath id="clip0_28_52">
<rect width="25" height="25" fill="white"/>
</clipPath>
</defs>
</svg>
