<svg width="24" height="24" viewBox="0 0 24 24" fill="none" xmlns="http://www.w3.org/2000/svg">
<g clip-path="url(#clip0_28_31)">
<path fill-rule="evenodd" clip-rule="evenodd" d="M3.75 2.625C3.75 2.52554 3.78951 2.43016 3.85984 2.35984C3.93016 2.28951 4.02554 2.25 4.125 2.25H16.875C16.9745 2.25 17.0698 2.28951 17.1402 2.35984C17.2105 2.43016 17.25 2.52554 17.25 2.625V14.229C17.25 14.5274 17.3685 14.8135 17.5795 15.0245C17.7905 15.2355 18.0766 15.354 18.375 15.354C18.6734 15.354 18.9595 15.2355 19.1705 15.0245C19.3815 14.8135 19.5 14.5274 19.5 14.229V2.625C19.5 1.92881 19.2234 1.26113 18.7312 0.768845C18.2389 0.276562 17.5712 0 16.875 0H4.125C3.42881 0 2.76113 0.276562 2.26884 0.768845C1.77656 1.26113 1.5 1.92881 1.5 2.625V19.875C1.5 21.324 2.676 22.5 4.125 22.5H8.88C9.17837 22.5 9.46452 22.3815 9.6755 22.1705C9.88647 21.9595 10.005 21.6734 10.005 21.375C10.005 21.0766 9.88647 20.7905 9.6755 20.5795C9.46452 20.3685 9.17837 20.25 8.88 20.25H4.125C4.02554 20.25 3.93016 20.2105 3.85984 20.1402C3.78951 20.0698 3.75 19.9745 3.75 19.875V2.625ZM7.125 6C6.82663 6 6.54048 6.11853 6.3295 6.3295C6.11853 6.54048 6 6.82663 6 7.125C6 7.42337 6.11853 7.70952 6.3295 7.9205C6.54048 8.13147 6.82663 8.25 7.125 8.25H13.875C14.1734 8.25 14.4595 8.13147 14.6705 7.9205C14.8815 7.70952 15 7.42337 15 7.125C15 6.82663 14.8815 6.54048 14.6705 6.3295C14.4595 6.11853 14.1734 6 13.875 6H7.125ZM6 11.625C6 11.3266 6.11853 11.0405 6.3295 10.8295C6.54048 10.6185 6.82663 10.5 7.125 10.5H10.125C10.4234 10.5 10.7095 10.6185 10.9205 10.8295C11.1315 11.0405 11.25 11.3266 11.25 11.625C11.25 11.9234 11.1315 12.2095 10.9205 12.4205C10.7095 12.6315 10.4234 12.75 10.125 12.75H7.125C6.82663 12.75 6.54048 12.6315 6.3295 12.4205C6.11853 12.2095 6 11.9234 6 11.625ZM23.661 16.9305C23.7668 16.8273 23.8512 16.7042 23.9094 16.5684C23.9677 16.4326 23.9986 16.2866 24.0004 16.1388C24.0022 15.991 23.9749 15.8443 23.92 15.7071C23.8651 15.5699 23.7837 15.4448 23.6805 15.339C23.5773 15.2332 23.4542 15.1488 23.3184 15.0906C23.1826 15.0324 23.0366 15.0015 22.8888 14.9996C22.741 14.9978 22.5943 15.0251 22.4571 15.08C22.3199 15.1349 22.1948 15.2163 22.089 15.3195L16.05 21.2175L13.9215 19.08C13.7086 18.8809 13.4267 18.7721 13.1353 18.7767C12.8438 18.7813 12.5655 18.8988 12.359 19.1046C12.1525 19.3103 12.0339 19.5882 12.0282 19.8796C12.0225 20.1711 12.1302 20.4534 12.3285 20.667L15.243 23.592C15.452 23.802 15.7355 23.921 16.0318 23.9233C16.3281 23.9255 16.6133 23.8108 16.8255 23.604L23.661 16.929V16.9305Z" fill="white"/>
</g>
<defs>
<clipPath id="clip0_28_31">
<rect width="24" height="24" fill="white"/>
</clipPath>
</defs>
</svg>
