<svg width="116" height="117" viewBox="0 0 116 117" fill="none" xmlns="http://www.w3.org/2000/svg">
<path d="M18.292 34.675C18.292 30.4625 19.9654 26.4225 22.9441 23.4438C25.9228 20.4651 29.9628 18.7917 34.1753 18.7917H81.8252C86.0377 18.7917 90.0777 20.4651 93.0564 23.4438C96.0351 26.4225 97.7085 30.4625 97.7085 34.675V82.3249C97.7085 86.5374 96.0351 90.5774 93.0564 93.5561C90.0777 96.5348 86.0377 98.2082 81.8252 98.2082H34.1753C29.9628 98.2082 25.9228 96.5348 22.9441 93.5561C19.9654 90.5774 18.292 86.5374 18.292 82.3249V34.675Z" stroke="black" stroke-width="5" stroke-linecap="round" stroke-linejoin="round"/>
<path d="M44.1024 54.5292C49.5849 54.5292 54.0294 50.0847 54.0294 44.6021C54.0294 39.1195 49.5849 34.675 44.1024 34.675C38.6198 34.675 34.1753 39.1195 34.1753 44.6021C34.1753 50.0847 38.6198 54.5292 44.1024 54.5292Z" stroke="black" stroke-width="5" stroke-linecap="round" stroke-linejoin="round"/>
<path d="M68.0306 60.9659L34.1753 98.2083H82.3533C86.4258 98.2083 90.3314 96.5905 93.2111 93.7108C96.0907 90.8312 97.7085 86.9255 97.7085 82.8531V82.325C97.7085 80.4746 97.0136 79.7638 95.7628 78.3938L79.7604 60.9421C79.0146 60.1285 78.1074 59.4793 77.0966 59.0359C76.0859 58.5926 74.9939 58.3647 73.8902 58.367C72.7865 58.3692 71.6954 58.6015 70.6865 59.049C69.6776 59.4964 68.7731 60.1493 68.0306 60.9659V60.9659Z" stroke="black" stroke-width="5" stroke-linecap="round" stroke-linejoin="round"/>
</svg>
