<svg width="143" height="49" viewBox="0 0 143 49" fill="none" xmlns="http://www.w3.org/2000/svg">
<path d="M64.4297 10.9062V36.5H59.6133V10.9062H64.4297ZM72.375 10.9062V14.7207H51.7559V10.9062H72.375ZM78.6504 21.3652V36.5H74.0098V17.4805H78.4043L78.6504 21.3652ZM84.4336 17.3574L84.3633 21.6816C84.1055 21.6348 83.8125 21.5996 83.4844 21.5762C83.168 21.5527 82.8691 21.541 82.5879 21.541C81.873 21.541 81.2461 21.6406 80.707 21.8398C80.168 22.0273 79.7168 22.3027 79.3535 22.666C79.002 23.0293 78.7324 23.4746 78.5449 24.002C78.3574 24.5176 78.252 25.1035 78.2285 25.7598L77.2266 25.6367C77.2266 24.4297 77.3496 23.3105 77.5957 22.2793C77.8418 21.248 78.1992 20.3457 78.668 19.5723C79.1367 18.7988 79.7227 18.2012 80.4258 17.7793C81.1406 17.3457 81.9609 17.1289 82.8867 17.1289C83.1445 17.1289 83.4199 17.1523 83.7129 17.1992C84.0176 17.2344 84.2578 17.2871 84.4336 17.3574ZM85.6641 27.1836V26.8145C85.6641 25.4199 85.8633 24.1367 86.2617 22.9648C86.6602 21.7812 87.2402 20.7559 88.002 19.8887C88.7637 19.0215 89.6953 18.3477 90.7969 17.8672C91.8984 17.375 93.1523 17.1289 94.5586 17.1289C95.9883 17.1289 97.2539 17.375 98.3555 17.8672C99.4688 18.3477 100.406 19.0215 101.168 19.8887C101.93 20.7559 102.51 21.7812 102.908 22.9648C103.307 24.1367 103.506 25.4199 103.506 26.8145V27.1836C103.506 28.5664 103.307 29.8496 102.908 31.0332C102.51 32.2051 101.93 33.2305 101.168 34.1094C100.406 34.9766 99.4746 35.6504 98.373 36.1309C97.2715 36.6113 96.0117 36.8516 94.5938 36.8516C93.1875 36.8516 91.9277 36.6113 90.8145 36.1309C89.7012 35.6504 88.7637 34.9766 88.002 34.1094C87.2402 33.2305 86.6602 32.2051 86.2617 31.0332C85.8633 29.8496 85.6641 28.5664 85.6641 27.1836ZM90.3047 26.8145V27.1836C90.3047 28.0156 90.3867 28.7949 90.5508 29.5215C90.7148 30.248 90.9668 30.8867 91.3066 31.4375C91.6465 31.9883 92.0859 32.4219 92.625 32.7383C93.1758 33.043 93.832 33.1953 94.5938 33.1953C95.3438 33.1953 95.9883 33.043 96.5273 32.7383C97.0664 32.4219 97.5059 31.9883 97.8457 31.4375C98.1973 30.8867 98.4551 30.248 98.6191 29.5215C98.7832 28.7949 98.8652 28.0156 98.8652 27.1836V26.8145C98.8652 25.9941 98.7832 25.2266 98.6191 24.5117C98.4551 23.7852 98.1973 23.1465 97.8457 22.5957C97.5059 22.0332 97.0605 21.5938 96.5098 21.2773C95.9707 20.9492 95.3203 20.7852 94.5586 20.7852C93.8086 20.7852 93.1641 20.9492 92.625 21.2773C92.0859 21.5938 91.6465 22.0332 91.3066 22.5957C90.9668 23.1465 90.7148 23.7852 90.5508 24.5117C90.3867 25.2266 90.3047 25.9941 90.3047 26.8145ZM111.803 9.5V36.5H107.145V9.5H111.803ZM121.154 9.5V36.5H116.496V9.5H121.154ZM134.127 36.8516C132.686 36.8516 131.391 36.6172 130.242 36.1484C129.094 35.6797 128.115 35.0293 127.307 34.1973C126.51 33.3535 125.895 32.375 125.461 31.2617C125.039 30.1367 124.828 28.9297 124.828 27.6406V26.9375C124.828 25.4727 125.039 24.1426 125.461 22.9473C125.883 21.7402 126.48 20.7031 127.254 19.8359C128.027 18.9688 128.953 18.3008 130.031 17.832C131.109 17.3633 132.299 17.1289 133.6 17.1289C134.947 17.1289 136.137 17.3574 137.168 17.8145C138.199 18.2598 139.061 18.8926 139.752 19.7129C140.443 20.5332 140.965 21.5176 141.316 22.666C141.668 23.8027 141.844 25.0625 141.844 26.4453V28.3965H126.938V25.1973H137.273V24.8457C137.25 24.1074 137.109 23.4336 136.852 22.8242C136.594 22.2031 136.195 21.7109 135.656 21.3477C135.117 20.9727 134.42 20.7852 133.564 20.7852C132.873 20.7852 132.27 20.9375 131.754 21.2422C131.25 21.5352 130.828 21.957 130.488 22.5078C130.16 23.0469 129.914 23.6914 129.75 24.4414C129.586 25.1914 129.504 26.0234 129.504 26.9375V27.6406C129.504 28.4375 129.609 29.1758 129.82 29.8555C130.043 30.5352 130.365 31.127 130.787 31.6309C131.221 32.123 131.736 32.5098 132.334 32.791C132.943 33.0605 133.635 33.1953 134.408 33.1953C135.381 33.1953 136.26 33.0078 137.045 32.6328C137.842 32.2461 138.533 31.6777 139.119 30.9277L141.457 33.3535C141.059 33.9395 140.52 34.502 139.84 35.041C139.172 35.5801 138.363 36.0195 137.414 36.3594C136.465 36.6875 135.369 36.8516 134.127 36.8516Z" fill="white"/>
<path d="M6 11L6 38C6 39.1935 6.47411 40.3381 7.31802 41.182C8.16193 42.0259 9.30653 42.5 10.5 42.5H37.5C38.6935 42.5 39.8381 42.0259 40.682 41.182C41.5259 40.3381 42 39.1935 42 38V11C42 9.80653 41.5259 8.66193 40.682 7.81802C39.8381 6.97411 38.6935 6.5 37.5 6.5H10.5C9.30653 6.5 8.16193 6.97411 7.31802 7.81802C6.47411 8.66193 6 9.80653 6 11ZM33.27 26.84C33.8429 26.84 34.3923 27.0676 34.7974 27.4726C35.2024 27.8777 35.43 28.4271 35.43 29V35.66C35.43 36.2329 35.2024 36.7823 34.7974 37.1874C34.3923 37.5924 33.8429 37.82 33.27 37.82H12.84C11.646 37.82 10.68 36.854 10.68 35.66V29C10.68 27.808 11.646 26.84 12.84 26.84H33.27ZM24.27 11.18C24.8429 11.18 25.3923 11.4076 25.7973 11.8126C26.2024 12.2177 26.43 12.7671 26.43 13.34L26.43 20C26.43 20.5729 26.2024 21.1223 25.7973 21.5274C25.3923 21.9324 24.8429 22.16 24.27 22.16H12.84C11.646 22.16 10.68 21.192 10.68 20V13.34C10.68 12.146 11.646 11.18 12.84 11.18H24.27Z" fill="white"/>
</svg>
